<?xml version="1.0" encoding="utf-8"?>
<svg version="1.1" xmlns="http://www.w3.org/2000/svg" x="0px" y="0px"
	 viewBox="460 860 1060 280" xml:space="preserve">
<style type="text/css">
	.st0{fill:#ffffff;}
	.st1{opacity:0.55;fill:#ffffff;}
	.st2{opacity:0.8;fill:#ffffff;}
	.st3{fill:#ffffff;}
	.st4{opacity:0.65;fill:#ffffff;}
</style>
<g>
	<g>
		<g>
			<g>
				<path class="st0" d="M543.32,897.43l20.27,29.87c10.43-5.61,22.2-9.04,34.7-9.67l1.94-36.05
					C579.53,881.98,560.13,887.7,543.32,897.43z"/>
				<path class="st1" d="M542.46,943.55c2.17-2.31,4.48-4.5,6.9-6.55l-20.27-29.88c-5.55,4.4-10.7,9.27-15.38,14.58L542.46,943.55z"/>
				<path class="st2" d="M487.78,970.42c-1.74,6.77-2.87,13.77-3.39,20.94h36.1c0.33-3.19,0.87-6.33,1.55-9.4L487.78,970.42z"/>
				<path class="st3" d="M617.42,882.51l-1.94,36.06c39.3,6.25,69.44,40.37,69.44,81.41c0,45.46-36.98,82.44-82.44,82.44
					c-42.55,0-77.67-32.41-81.99-73.83h-36.1c4.43,61.3,55.68,109.83,118.09,109.83c65.31,0,118.44-53.13,118.44-118.44
					C720.92,939.73,675.69,889.88,617.42,882.51z"/>
				<path class="st4" d="M527.56,965.65c1.33-2.9,2.81-5.71,4.45-8.42l-28.74-21.84c-3.85,5.9-7.22,12.15-9.98,18.71L527.56,965.65z"/>
			</g>
		</g>
		<g>
			<path class="st0" d="M881.67,1000c0,39.72-27.5,67.02-70.27,67.02h-50.22V932.98h50.22C854.18,932.98,881.67,960.09,881.67,1000z
				 M809.31,1038.76c24.63,0,39.14-14.13,39.14-38.76c0-24.63-14.51-39.14-39.14-39.14h-15.47v77.91H809.31z"/>
			<path class="st0" d="M943.54,1067.02c-31.31,0-53.85-21-53.85-54.8c0-33.8,22.15-54.8,53.85-54.8
				c31.12,0,53.08,20.62,53.08,53.08c0,3.06-0.19,6.3-0.57,9.55h-73.89c1.15,13.94,9.74,20.43,20.24,20.43
				c9.17,0,14.32-4.58,16.99-10.31h34.75C988.98,1050.98,970.08,1067.02,943.54,1067.02z M922.34,1001.91h40.86
				c0-11.65-9.17-18.33-20.05-18.33C932.46,983.58,924.25,990.07,922.34,1001.91z"/>
			<path class="st0" d="M1050.47,957.42c15.85,0,27.11,7.26,32.84,16.61v-15.08h32.65v106.55h-32.65v-15.08
				c-5.92,9.36-17.18,16.61-33.03,16.61c-25.97,0-46.78-21.39-46.78-54.99C1003.5,978.42,1024.31,957.42,1050.47,957.42z
				 M1060.02,985.87c-12.22,0-23.29,9.16-23.29,26.16c0,16.99,11.07,26.54,23.29,26.54c12.41,0,23.29-9.36,23.29-26.35
				C1083.31,995.23,1072.43,985.87,1060.02,985.87z"/>
			<path class="st0" d="M1135.82,925.72h32.65v141.3h-32.65V925.72z"/>
			<path class="st3" d="M1233.2,923.81c27.69,0,42.77,16.04,42.77,36.28c0,16.61-10.5,27.88-21.39,31.51v0.76
				c14.51,4.39,23.87,16.42,23.87,35.71c0,22.15-15.66,38.95-44.68,38.95c-26.35,0-46.78-13.75-48.12-41.05h21
				c0.95,12.98,10.5,22.91,26.92,22.91c16.23,0,24.25-9.93,24.25-22.91c0-18.33-11.84-24.63-34.56-24.63h-4.96v-17.95h5.15
				c19.67-0.19,31.7-5.92,31.7-20.81c0-12.03-7.83-20.05-22.72-20.05c-15.28,0-22.34,9.17-23.68,18.9h-21.19
				C1189.09,937.37,1207.81,923.81,1233.2,923.81z"/>
			<path class="st3" d="M1372.4,960.09c-2.67-11.27-9.36-17.57-23.1-17.57c-19.67,0-29.79,13.37-30.36,49.84
				c6.87-11.46,20.62-17.57,35.13-17.57c25.01,0,42.77,16.8,42.77,45.83c0,26.35-15.85,46.4-45.64,46.4
				c-40.48,0-50.98-28.45-50.98-72.75c0-43.53,14.51-69.88,49.26-69.88c27.11,0,40.67,17.18,42.96,35.71H1372.4z M1321.42,1020.24
				c0,17.18,10.12,28.64,28.64,28.64c16.04,0,25.97-10.88,25.97-27.3c0-16.61-8.4-28.45-26.73-28.45
				C1334.97,993.13,1321.42,1001.72,1321.42,1020.24z"/>
			<path class="st3" d="M1465.96,925.72c38.95,0,49.65,30.55,49.65,70.27c0,40.48-10.69,71.03-49.65,71.03
				c-38.95,0-49.65-30.55-49.65-71.03C1416.32,956.27,1427.01,925.72,1465.96,925.72z M1465.96,945.58
				c-25.4,0-28.26,24.44-28.26,50.41c0,27.3,2.86,51.17,28.26,51.17s28.26-23.87,28.26-51.17
				C1494.22,970.02,1491.36,945.58,1465.96,945.58z"/>
		</g>
	</g>
</g>
</svg>